Coordinates
version=1
nRows=16
nColumns=36
inDegrees=yes

Units are S.I. units (second, meters, Newtons, ...)
If the header above contains a line with 'inDegrees', this indicates whether rotational values are in degrees (yes) or radians (no).

endheader
time	pelvis_tilt	pelvis_list	pelvis_rotation	pelvis_tx	pelvis_ty	pelvis_tz	hip_flexion_r	hip_adduction_r	hip_rotation_r	knee_angle_r	knee_angle_r_beta	ankle_angle_r	subtalar_angle_r	mtp_angle_r	hip_flexion_l	hip_adduction_l	hip_rotation_l	knee_angle_l	knee_angle_l_beta	ankle_angle_l	subtalar_angle_l	mtp_angle_l	lumbar_extension	lumbar_bending	lumbar_rotation	arm_flex_r	arm_add_r	arm_rot_r	elbow_flex_r	pro_sup_r	arm_flex_l	arm_add_l	arm_rot_l	elbow_flex_l	pro_sup_l
      2.18333330	     -0.60842142	     -3.01039476	      2.55779803	      0.75315881	      0.90902577	      0.01733816	     16.02971543	      2.50497140	     -2.94243005	     43.78495852	      0.76419169	     -0.93486533	    -24.17337304	     -7.49999987	      2.51455202	      4.05672281	      7.39021346	     12.71662626	      0.22194700	      7.77994132	     -9.67170168	     -7.49999987	     -4.12023343	     -0.29457142	     -1.10723293	     30.84779464	      4.81577310	     68.81480603	    121.39572036	    100.59416036	     34.98861044	      0.69624092	     67.99958954	    121.55365471	    105.06117437
      2.20000000	     -0.83500284	     -2.99422616	      2.63713432	      0.75278288	      0.90836812	      0.01715729	     17.17042097	      2.34588670	     -2.47128741	     42.68134817	      0.74493005	     -0.50842475	    -23.89979111	     -7.49999987	      2.83452871	      4.09756446	      7.45027370	     12.70329310	      0.22171429	      7.79294286	     -9.43839535	     -7.49999987	     -4.37033033	     -0.32468971	     -1.10275596	     31.22331034	      4.83836368	     68.64603929	    121.25999192	    100.42613673	     35.21624767	      0.73631997	     67.94478859	    121.47252419	    104.82017084
      2.21666670	     -1.52671766	     -3.07877812	      2.67492105	      0.75259754	      0.90683763	      0.01755019	     18.92150007	      2.27167546	     -2.01595605	     41.39717386	      0.72251698	      0.23537345	    -23.35883590	     -7.49999987	      3.77790658	      4.02812769	      7.26308865	     12.90994049	      0.22532097	      8.13160886	     -8.91180391	     -7.49999987	     -4.00005482	     -0.19139365	     -1.04684642	     31.34853677	      4.80341669	     68.43684792	    121.05442060	    103.21944050	     35.32661440	      0.69004956	     68.21242359	    121.46196666	    107.39762334
      2.23333330	     -1.77013351	     -3.04450557	      2.69985796	      0.75093746	      0.90622254	      0.01877937	     20.24827955	      2.14759216	     -1.45373180	     39.71188351	      0.69310312	      0.99435424	    -22.99134743	     -7.49999987	      4.23853609	      4.03210912	      7.17767056	     12.99452470	      0.22679724	      8.49653969	     -8.85317414	     -7.49999987	     -4.23417161	     -0.27569981	     -1.07777039	     31.64150621	      4.92799114	     68.21844740	    120.91481045	    102.80944373	     35.67124971	      0.59775700	     68.21855959	    121.39466677	    106.82999037
      2.25000000	     -2.08256438	     -3.12338612	      2.70231996	      0.74840771	      0.90635719	      0.02027114	     21.65421687	      2.12856678	     -0.98687773	     37.64133230	      0.65696518	      2.32450890	    -21.94156282	     -7.49999987	      4.95439173	      3.84031708	      6.71914943	     13.23874298	      0.23105965	      9.42845666	     -8.35701479	     -7.49999987	     -4.54843328	     -0.17087166	     -0.92805631	     31.80118721	      4.93575451	     68.05261512	    120.75015815	    102.96834284	     36.22351892	      0.33118288	     68.49055557	    121.44831163	    106.91518017
      2.26666670	     -2.39518727	     -2.98185558	      2.76030280	      0.74523336	      0.90631664	      0.02148899	     23.14052197	      1.83300960	     -0.44577985	     35.55164451	      0.62049325	      3.13393378	    -21.25502680	     -7.49999987	      5.76648212	      3.88435621	      6.51158571	     13.48287184	      0.23532051	     10.03237331	     -8.37168066	     -7.49999987	     -4.98173344	     -0.46722905	     -0.84148752	     32.05195349	      5.01442521	     67.94800634	    120.42865906	    102.25518050	     36.78858195	      0.08319964	     68.33396812	    121.23143736	    105.99069081
      2.28333330	     -2.74860893	     -3.10448604	      2.79579028	      0.74089607	      0.90503052	      0.02188536	     24.63433617	      1.72043821	     -0.03454707	     33.30850877	      0.58134315	      3.78575109	    -20.26837016	     -7.49999987	      6.80618327	      3.65611868	      6.32508335	     13.97126505	      0.24384458	     10.59676819	     -8.59339939	     -7.49999987	     -5.49729764	     -0.24916753	     -0.63106516	     32.39942825	      4.94429788	     68.18352705	    120.04279554	    101.79491747	     37.63167550	     -0.22510370	     68.50007824	    121.09456218	    105.35630841
      2.30000000	     -3.17401029	     -3.09257869	      3.02922718	      0.73546811	      0.90262693	      0.02176259	     26.31060298	      1.30545499	      0.16784713	     31.32661914	      0.54675265	      4.40186300	    -18.96914049	     -7.49999987	      8.04844235	      3.66492039	      6.61055039	     14.60146934	      0.25484372	     10.70785411	     -9.24381542	     -7.49999987	     -6.10870082	     -0.27578195	     -0.52952115	     33.10490556	      4.89418085	     68.41520121	    119.64778439	    103.71119371	     38.70381043	     -0.39530372	     68.27727770	    120.70218633	    107.13603553
      2.31666670	     -3.54508500	     -2.94635145	      3.20860225	      0.73067754	      0.90074867	      0.02199323	     27.99231757	      0.84574366	      0.73072072	     29.46117664	      0.51419453	      4.74449040	    -17.97026274	     -7.49999987	      9.21102174	      3.78470491	      6.54450223	     15.23293015	      0.26586479	     11.04620336	     -9.25164058	     -7.49999987	     -6.82685879	     -0.49201351	     -0.36156696	     33.74458953	      4.90651963	     68.30478871	    119.16691342	    102.70260055	     39.74990431	     -0.68180366	     67.68690290	    120.10743826	    105.85051078
      2.33333330	     -3.66421309	     -3.02460040	      3.56323583	      0.72553759	      0.89977184	      0.02225948	     29.36265079	      0.50259688	      0.95381605	     27.44167527	      0.47894759	      5.11323544	    -16.51263404	     -7.49999987	     10.20143484	      3.79863214	      7.10462852	     16.11933288	      0.28133543	     11.12077523	    -10.45442987	     -7.49999987	     -8.11873723	     -0.29010586	     -0.34163174	     34.84006898	      4.80831448	     68.77089956	    118.98544057	    104.55600679	     41.01594359	     -0.92564037	     67.09430284	    119.53702390	    107.16814337
      2.35000000	     -3.70371941	     -2.98800513	      3.89582477	      0.71865885	      0.89895795	      0.02382580	     30.74527107	      0.05471388	      1.20804117	     25.56869127	      0.44625785	      5.35174742	    -15.19232545	     -7.49999987	     11.12170302	      3.93674134	      7.49493073	     17.09597596	      0.29838107	     11.38307494	    -11.37360334	     -7.49999987	     -9.60728360	     -0.25497398	     -0.41479176	     35.82658922	      4.97016191	     69.09131346	    118.69797584	    104.59849128	     42.27861776	     -1.18879100	     66.66814038	    119.17251543	    106.95076314
      2.36666670	     -3.69411007	     -2.94978864	      4.23085430	      0.71052710	      0.89768653	      0.02591294	     32.16909904	     -0.41059974	      1.39976670	     23.87681888	      0.41672910	      5.49012974	    -13.95666321	     -7.49999987	     12.11199512	      4.15416127	      8.12644487	     18.28775022	      0.31918145	     11.41551572	    -13.07351123	     -7.49999987	    -11.33098473	     -0.20360400	     -0.36084824	     37.03590152	      5.20338533	     69.60722490	    118.41609828	    102.72011020	     43.66066514	     -1.49960920	     66.86555997	    119.09975166	    104.79458372
      2.38333330	     -3.75456398	     -2.97497732	      4.55905124	      0.70300014	      0.89626040	      0.02748315	     33.74153206	     -0.83812032	      1.37504209	     22.44215548	      0.39168950	      5.79217615	    -12.23416837	     -7.49999987	     13.40254502	      4.30293549	      8.38616837	     19.84739635	      0.34640241	     12.08942374	    -14.00166302	     -7.49999987	    -13.12489224	     -0.09376534	     -0.01194126	     38.29122012	      5.19728821	     69.46720914	    118.25304171	    105.19112049	     44.78924939	     -1.80019529	     66.92733715	    119.17091890	    107.23836521
      2.40000000	     -3.82420946	     -3.00960583	      5.06372598	      0.69644828	      0.89514151	      0.02845931	     35.35691126	     -1.35240610	      1.14175169	     21.28267644	      0.37145278	      6.12423165	    -10.32866064	     -7.49999987	     14.92323613	      4.57212885	      8.95440190	     21.72829980	      0.37923037	     12.77782626	    -15.42769289	     -7.49999987	    -15.14648364	      0.00892795	      0.33447819	     39.93459698	      4.97091500	     69.31440831	    118.40084416	    105.11039145	     45.95726071	     -2.14870987	     67.27376853	    119.18797838	    107.06771935
      2.41666670	     -4.11255832	     -3.04982145	      5.59071056	      0.69002272	      0.89377694	      0.02952798	     37.34525422	     -1.90032474	      0.84920251	     20.70255319	      0.36132772	      6.42914366	     -8.47019299	     -7.49999987	     16.96231714	      4.94382050	      9.47410584	     24.06673610	      0.42004379	     13.74988224	    -16.78408304	     -7.49999987	    -17.04490926	      0.11243660	      0.60544301	     41.59834621	      4.69518475	     69.19829169	    118.65338599	    104.85016907	     47.06795776	     -2.46490520	     67.52428411	    119.21709264	    106.77379620
      2.43333330	     -4.22968353	     -3.09607037	      5.98580622	      0.68275509	      0.89223718	      0.02995521	     39.40272463	     -2.35203971	      0.73292930	     20.94699654	      0.36559406	      6.43269880	     -7.45208140	     -7.49999987	     19.16632925	      5.32957497	      9.70525787	     27.00074857	      0.47125196	     15.39143628	    -17.74063243	     -7.49999987	    -19.19974179	      0.22770937	      0.71544621	     43.19953412	      4.64160145	     68.90207332	    118.70453291	    104.33927746	     48.32340377	     -2.50648792	     67.35957376	    119.11795195	    106.15375982
